<svg width="39" height="39" viewBox="0 0 39 39" fill="none" xmlns="http://www.w3.org/2000/svg">
<rect x="0.00292969" y="0.545654" width="38.1496" height="38.1496" rx="19.0748" fill="#CAFF33"/>
<path fill-rule="evenodd" clip-rule="evenodd" d="M19.0776 13.7678C19.4367 13.7678 19.7279 14.059 19.7279 14.4181V18.97H24.2798C24.6389 18.97 24.9301 19.2612 24.9301 19.6203C24.9301 19.9795 24.6389 20.2706 24.2798 20.2706H19.7279V24.8225C19.7279 25.1817 19.4367 25.4728 19.0776 25.4728C18.7185 25.4728 18.4273 25.1817 18.4273 24.8225V20.2706H13.8754C13.5162 20.2706 13.2251 19.9795 13.2251 19.6203C13.2251 19.2612 13.5162 18.97 13.8754 18.97L18.4273 18.97V14.4181C18.4273 14.059 18.7185 13.7678 19.0776 13.7678Z" fill="#1A1A1A"/>
</svg>
